<svg id="Capa_1" data-name="Capa 1" xmlns="http://www.w3.org/2000/svg" viewBox="0 0 1080 2049"><defs><style>.cls-1{fill:#102335;}.cls-2{font-size:65.9px;font-family:Raleway-Bold, Raleway;}.cls-2,.cls-5{fill:#0c9c39;}.cls-2,.cls-4,.cls-7{font-weight:700;}.cls-3,.cls-4,.cls-7{fill:#fff;}.cls-4{font-size:21px;}.cls-4,.cls-7{font-family:HelveticaLTStd-BoldCond, Helvetica LT Std;}.cls-6{fill:none;stroke:#fff;stroke-miterlimit:10;stroke-width:3px;}.cls-7{font-size:62.22px;}</style></defs><title>Ruta</title><rect class="cls-1" width="1080" height="2049"/><text class="cls-2" transform="translate(246.71 1153.37)">Estadero Agosalsa</text><path class="cls-3" d="M481.65,1332.63q35.4-35.36,70.81-70.71c3.89-3.87,8.32-4.1,12.15-.36q17.21,16.83,34.09,34c3.84,3.9,3.64,8.24-.24,12.14q-35.33,35.43-70.79,70.74c-4.2,4.19-8.46,4-12.72-.19q-16.49-16.4-32.93-32.83c-1.83-1.82-3.17-3.85-3.12-6.54A8.12,8.12,0,0,1,481.65,1332.63Zm11.45-.2c11.44,11.45,22.93,22.85,34.3,34.36,2.11,2.14,3.45,1.78,5.41-.19q28.82-29,57.81-57.78c2-2,2.17-3.31,0-5.39q-17.14-16.87-34-34c-2-2-3.18-1.72-5,.12q-29.05,29-58.22,57.91c-.76.77-1.72,1.43-1.88,2.61A4.05,4.05,0,0,0,493.1,1332.43Z"/><path class="cls-3" d="M484.58,1309.8c-.56-11.31,2.52-20.24,8.91-28,8.19-10,17.72-17.9,31.22-19.43a36.61,36.61,0,0,1,9.92.13c2.38.37,5.23.88,5.7-2.31s-2.64-3.44-4.87-3.77c-13.9-2.05-26,2.1-36.52,11.09-12.33,10.57-21.12,23.07-20.66,40.25.06,2-.69,2.54-2.44,1.37a13.19,13.19,0,0,0-2.17-1.21,2.8,2.8,0,0,0-3.62,1.13,2.5,2.5,0,0,0,.56,3.7c3.56,2.61,7.17,5.18,10.91,7.54,1.92,1.21,3.41-.12,4.54-1.68,1.85-2.58,3.66-5.2,5.48-7.81,1.25-1.81,2.35-3.75,0-5.44s-3.76.11-5,1.86C486.15,1307.77,485.72,1308.3,484.58,1309.8Z"/><path class="cls-3" d="M601.76,1330.41c2-.18,2.89,1.32,4.28,1.83,1.61.6,3,.5,4-1a2.61,2.61,0,0,0-.73-3.7c-3.43-2.57-6.91-5.07-10.5-7.4-1.83-1.19-3.45-.31-4.62,1.37-1.89,2.72-3.81,5.43-5.64,8.2-1.19,1.81-2.22,3.85.18,5.41,2.23,1.46,3.51-.37,4.76-1.89.34-.42.73-.8,1.53-1.67a20.43,20.43,0,0,1,0,8.88c-3.84,22.18-27.63,39.92-50,37.34-2.29-.27-4.9-.68-5.3,2.3-.43,3.22,2.4,3.65,4.76,3.92,11.06,1.25,21.54-.36,30.86-6.87,14.38-10,25.15-22.46,26.4-41C601.87,1334.25,601.76,1332.34,601.76,1330.41Z"/><text class="cls-4" transform="translate(467.16 1357.29) rotate(-113.25)">G</text><text class="cls-4" transform="matrix(-0.24, -0.97, 0.97, -0.24, 461.17, 1341.93)">I</text><text class="cls-4" transform="translate(458.85 1332.68) rotate(-95)">R</text><text class="cls-4" transform="translate(457.86 1316.3) rotate(-84.33)">E</text><text class="cls-4" transform="translate(459.71 1302.22) rotate(-76.27)"> </text><text class="cls-4" transform="matrix(0.38, -0.93, 0.93, 0.38, 461.88, 1293.51)">S</text><text class="cls-4" transform="translate(467.9 1279.51) rotate(-56.81)">U</text><text class="cls-4" transform="translate(477.4 1266.04) rotate(-47.89)"> </text><text class="cls-4" transform="matrix(0.78, -0.63, 0.63, 0.78, 483.39, 1259.4)">D</text><text class="cls-4" transform="translate(496.58 1249.48) rotate(-29.87)">I</text><text class="cls-4" transform="matrix(0.93, -0.36, 0.36, 0.93, 504.89, 1244.77)">S</text><text class="cls-4" transform="translate(519.22 1239.55) rotate(-10.59)">P</text><text class="cls-4" transform="translate(534.26 1237.03) rotate(0.52)">O</text><text class="cls-4" transform="translate(550.65 1237.58) rotate(11.55)">S</text><text class="cls-4" transform="translate(565.57 1241.14) rotate(20.18)">I</text><text class="cls-4" transform="translate(574.51 1244.53) rotate(28.45)">T</text><text class="cls-4" transform="translate(586.8 1251.68) rotate(36.76)">I</text><text class="cls-4" transform="matrix(0.7, 0.71, -0.71, 0.7, 594.39, 1257.43)">V</text><text class="cls-4" transform="translate(604.87 1268.52) rotate(56.6)">O</text><text class="cls-4" transform="translate(613.47 1282.6) rotate(65.37)"> </text><text class="cls-4" transform="translate(617.34 1290.62) rotate(75.42)">M</text><text class="cls-4" transform="matrix(0.03, 1, -1, 0.03, 621.76, 1309.92)">O</text><text class="cls-4" transform="translate(621.9 1326.32) rotate(99.15)">V</text><text class="cls-4" transform="matrix(-0.31, 0.95, -0.95, -0.31, 618.97, 1341.38)">I</text><text class="cls-4" transform="translate(615.96 1350.45) rotate(116.04)">L</text><path class="cls-3" d="M321.16,896.64h5.53v25.9h-3.14V901.2c0-1.1.07-2.17,0-3.28h-.08c-.34,1.52-.61,2.49-.87,3.49l-6,21.13h-3.75l-6-21.44c-.27-.9-.49-1.76-.83-3.18H306c0,1.11.08,2.24.08,3.35v21.27H303v-25.9h5.57l5.58,20.2a21.2,21.2,0,0,1,.61,3.83h.07a33.23,33.23,0,0,1,.72-3.86Z"/><path class="cls-3" d="M350.25,920h-.07a5.59,5.59,0,0,1-5,3c-3.15,0-5.08-1.51-5.08-4.9V903.34h3v14.92c0,1.62.57,2.48,2.7,2.48a4.44,4.44,0,0,0,3.6-1.69,6,6,0,0,0,.87-3.38V903.34h3v19.2h-3Z"/><path class="cls-3" d="M375.21,908.49c.12-2.28-.79-3.35-3.33-3.35-2.13,0-3.34.89-3.34,2.9,0,2.48,2.24,2.79,4.28,3.59,3,1.24,6.07,1.93,6.07,5.52s-2.8,5.94-7.13,5.9c-1.86,0-4.13-.55-5.23-2a5.49,5.49,0,0,1-1.18-4.11h2.85c-.12,2.35.75,3.8,3.56,3.8,2.43,0,4-.9,4-3.24,0-2.73-3-3-5.19-3.8-3.27-1.11-5.16-2.11-5.16-5.46s2.54-5.42,6.18-5.42c4.17,0,6.6,1.73,6.52,5.67Z"/><path class="cls-3" d="M403,916.15c.19,3.76-1.93,6.9-6.37,6.9-4,0-6.83-2.41-6.83-10.15,0-4,1.18-10.08,6.75-10.08,6.83,0,6.45,5.87,6.6,10.36H392.89c.08,2.59-.42,7.56,3.79,7.56,2.89,0,3.68-2.42,3.49-4.59Zm-3-5.21c-.11-2.25,0-5.8-3.45-5.8s-3.56,3.52-3.68,5.8Z"/><path class="cls-3" d="M422.06,923.05c-4.55,0-7.55-2.48-7.55-10.77,0-5.8,2.36-9.46,7.55-9.46s7.55,3.66,7.55,9.46C429.61,920.6,426.69,923.05,422.06,923.05Zm0-17.91c-3.07,0-4.44,2.21-4.44,8,0,4.52.95,7.59,4.44,7.59s4.44-3.07,4.44-7.59C426.5,907.35,425.21,905.14,422.06,905.14Z"/><path class="cls-3" d="M472,922.54a5.79,5.79,0,0,0-.68.13c-2.54.11-3.49-.1-3.79-2.72h-.08a5.32,5.32,0,0,1-4.66,3.1c-4.21,0-5.43-2.14-5.43-5.62a4.82,4.82,0,0,1,3-4.66c1.7-.69,5.95-2.14,6.33-2.42.65-.45.57-1.21.57-2.21,0-2.18-.91-3-3.34-3-2.73,0-3.11,1.14-3.07,3.38h-2.69c-.16-4,2-5.7,6.25-5.7,6.26,0,5.73,4.77,5.73,5.22v11c0,.48-.07,1.17.53,1.45a4,4,0,0,0,1.29,0Zm-4.93-10.36c-1.48.79-3.15,1.38-4.74,2.07a3.35,3.35,0,0,0-1.86,3.32c0,1.93.53,3.17,3,3.17a3.67,3.67,0,0,0,3.64-3.9Z"/><path class="cls-3" d="M513.64,904.41c-.08-3.07-1.18-5.7-5.12-5.7-5.47,0-5.54,7.08-5.54,10.5-.15,3.52-.23,11.36,5.54,11.36,3.75,0,4.55-2.8,4.93-5.63.07-.59.11-1.17.19-1.76h3.15c-.08.52-.08,1.07-.16,1.59-.18,2.1-.3,3.69-1.66,5.49a7.44,7.44,0,0,1-6.19,2.9c-8.76,0-9.06-7.7-9.06-13.88,0-5.84.95-13.16,9-13.16,5.39,0,8.2,3.66,8,8.29Z"/><path class="cls-3" d="M529.12,900.1v-3.46h3v3.46Zm0,22.44v-19.2h3v19.2Z"/><path class="cls-3" d="M557.23,916.15c.18,3.76-1.94,6.9-6.38,6.9-4,0-6.83-2.41-6.83-10.15,0-4,1.18-10.08,6.76-10.08,6.82,0,6.45,5.87,6.6,10.36H547.14c.07,2.59-.42,7.56,3.79,7.56,2.88,0,3.68-2.42,3.49-4.59Zm-3-5.21c-.12-2.25,0-5.8-3.46-5.8s-3.56,3.52-3.67,5.8Z"/><path class="cls-3" d="M569.55,922.54v-25.9h3v25.9Z"/><path class="cls-3" d="M592.31,923.05c-4.55,0-7.54-2.48-7.54-10.77,0-5.8,2.35-9.46,7.54-9.46s7.55,3.66,7.55,9.46C599.86,920.6,596.94,923.05,592.31,923.05Zm0-17.91c-3.07,0-4.43,2.21-4.43,8,0,4.52.94,7.59,4.43,7.59s4.44-3.07,4.44-7.59C596.75,907.35,595.46,905.14,592.31,905.14Z"/><path class="cls-3" d="M635,896.64h4.17l8,25.9h-3.49l-2.24-7.46h-9l-2.09,7.46h-3.49Zm2,2.07H637l-3.75,13.78h7.51Z"/><path class="cls-3" d="M660.71,922.54H658v-25.9h3v8.67h.07a5,5,0,0,1,4.4-2.49c5.35,0,6.64,4.94,6.64,8.88,0,5.45-.79,11.35-6.48,11.35a5,5,0,0,1-4.82-2.79h-.08Zm4.29-1.8c3.11,0,4-3,4-8.15,0-2.52-.19-7.45-4-7.45-4.44,0-4.17,5.49-4.17,8.28S660.75,920.74,665,920.74Z"/><path class="cls-3" d="M684.42,900.1v-3.46h3v3.46Zm0,22.44v-19.2h3v19.2Z"/><path class="cls-3" d="M712.53,916.15c.19,3.76-1.93,6.9-6.37,6.9-4,0-6.83-2.41-6.83-10.15,0-4,1.18-10.08,6.75-10.08,6.83,0,6.45,5.87,6.6,10.36H702.44c.08,2.59-.42,7.56,3.79,7.56,2.89,0,3.68-2.42,3.49-4.59Zm-3-5.21c-.11-2.25,0-5.8-3.45-5.8s-3.57,3.52-3.68,5.8Z"/><path class="cls-3" d="M728.08,906.48h.08c1.25-2.52,3-3.59,6.18-3.35v2.7c-3.87-.62-6.14,1.58-6.14,5.07v11.64h-3v-19.2h2.88Z"/><path class="cls-3" d="M748.57,903.34h3.53v2.31h-3.49v13.09c0,.65-.27,1.48,1.4,1.48h2v2.32h-3.3c-1.78,0-3.11-.24-3.11-3.15V905.65h-2.92v-2.31h2.92v-5.21h3Z"/><path class="cls-3" d="M770,923.05c-4.55,0-7.54-2.48-7.54-10.77,0-5.8,2.35-9.46,7.54-9.46s7.55,3.66,7.55,9.46C777.51,920.6,774.59,923.05,770,923.05Zm0-17.91c-3.07,0-4.43,2.21-4.43,8,0,4.52.94,7.59,4.43,7.59s4.44-3.07,4.44-7.59C774.4,907.35,773.11,905.14,770,905.14Z"/><path class="cls-5" d="M358.51,724.29a15.1,15.1,0,0,1-2,7.88,16.69,16.69,0,0,1-5.43,5.57,26.51,26.51,0,0,1-8,3.34,40.32,40.32,0,0,1-9.72,1.14H297.16v-70h41.28a15.36,15.36,0,0,1,7,1.58,17.2,17.2,0,0,1,5.33,4.09,18.3,18.3,0,0,1,3.4,5.71,18.55,18.55,0,0,1,1.2,6.55,18.13,18.13,0,0,1-2.66,9.46,16.56,16.56,0,0,1-8,6.7,19.33,19.33,0,0,1,10.09,6.3Q358.51,717.19,358.51,724.29ZM314.3,686.06v14.49h16.83a7.76,7.76,0,0,0,5-1.78q2.21-1.77,2.2-5.51a7,7,0,0,0-1.94-5.32,6.45,6.45,0,0,0-4.65-1.88Zm26.75,35a8.09,8.09,0,0,0-2-5.52,6.41,6.41,0,0,0-5-2.27H314.3v15.27h19a7.79,7.79,0,0,0,5.54-2.06A7.12,7.12,0,0,0,341.05,721Z"/><path class="cls-5" d="M380.87,742.22l28.54-70h13.9l28.42,70H433.55l-5.75-15.67H404.7l-5.64,15.67Zm35.43-52.81-8.88,26h17.45Z"/><path class="cls-5" d="M479.43,742.22v-70h33.44a22.59,22.59,0,0,1,9.67,2.07,25.7,25.7,0,0,1,7.68,5.42,25.2,25.2,0,0,1,5.07,7.58,21.5,21.5,0,0,1,1.83,8.58,23.43,23.43,0,0,1-3.24,11.92,21.67,21.67,0,0,1-3.81,4.77,22.69,22.69,0,0,1-5.07,3.6l17,26H522.7l-15-22.56H496.57v22.56Zm17.14-36.65h15.68a6.52,6.52,0,0,0,5.22-2.71,10.63,10.63,0,0,0,2.2-6.94,9.45,9.45,0,0,0-2.51-6.9,7.52,7.52,0,0,0-5.44-2.56H496.57Z"/><path class="cls-5" d="M571.4,742.22v-70h33.44a22.59,22.59,0,0,1,9.67,2.07,25.7,25.7,0,0,1,7.68,5.42,25.2,25.2,0,0,1,5.07,7.58,21.5,21.5,0,0,1,1.83,8.58,23.17,23.17,0,0,1-3.24,11.92,21.67,21.67,0,0,1-3.81,4.77,22.69,22.69,0,0,1-5.07,3.6l17,26H614.67l-14.95-22.56H588.54v22.56Zm17.14-36.65h15.68a6.52,6.52,0,0,0,5.22-2.71,10.63,10.63,0,0,0,2.2-6.94,9.45,9.45,0,0,0-2.51-6.9,7.52,7.52,0,0,0-5.44-2.56H588.54Z"/><path class="cls-5" d="M663.37,742.22v-70h17.14v70Z"/><path class="cls-5" d="M746.77,742.81a33.33,33.33,0,0,1-14.42-3.06A35.84,35.84,0,0,1,714,720.35a35.19,35.19,0,0,1-2.56-13.2,34.22,34.22,0,0,1,2.66-13.3,35.61,35.61,0,0,1,7.42-11.28,36.08,36.08,0,0,1,11.29-7.79,34.79,34.79,0,0,1,14.26-2.9,33.51,33.51,0,0,1,14.43,3,35.76,35.76,0,0,1,18.29,19.51,35.42,35.42,0,0,1,2.51,13,34.23,34.23,0,0,1-2.67,13.3A35.66,35.66,0,0,1,761,739.85,34.23,34.23,0,0,1,746.77,742.81ZM728.9,707.34a25.83,25.83,0,0,0,1.2,7.84,22,22,0,0,0,3.45,6.74A16.37,16.37,0,0,0,747,728.43a15.79,15.79,0,0,0,7.84-1.88,17.6,17.6,0,0,0,5.59-4.87,21,21,0,0,0,3.34-6.8,27.41,27.41,0,0,0,1.1-7.73,25.83,25.83,0,0,0-1.2-7.84,20.81,20.81,0,0,0-3.5-6.69A16.94,16.94,0,0,0,754.5,688a16.39,16.39,0,0,0-7.62-1.73,16.18,16.18,0,0,0-7.84,1.82,17.35,17.35,0,0,0-5.59,4.78,21,21,0,0,0-3.4,6.75A26.42,26.42,0,0,0,728.9,707.34Z"/><path class="cls-6" d="M299.8,858.49l40.91-100.3h19.94l40.76,100.3H375.34L367.09,836H334l-8.09,22.46Zm50.81-75.72-12.74,37.29h25Z"/><path class="cls-6" d="M499.13,832.78a21.73,21.73,0,0,1-2.85,11.3,23.93,23.93,0,0,1-7.79,8,38,38,0,0,1-11.54,4.8A57.75,57.75,0,0,1,463,858.49H411.15V758.19h59.2a22,22,0,0,1,10,2.26,24.84,24.84,0,0,1,7.64,5.86,27,27,0,0,1,6.59,17.59,25.87,25.87,0,0,1-3.82,13.56,23.75,23.75,0,0,1-11.46,9.61,27.68,27.68,0,0,1,14.46,9Q499.14,822.61,499.13,832.78ZM435.73,778v20.77h24.13a11.17,11.17,0,0,0,7.2-2.54c2.1-1.7,3.14-4.33,3.14-7.91q0-4.95-2.77-7.63a9.25,9.25,0,0,0-6.67-2.69Zm38.37,50.16a11.6,11.6,0,0,0-2.85-7.92,9.17,9.17,0,0,0-7.19-3.25H435.73v21.9H463a11.12,11.12,0,0,0,7.94-3A10.19,10.19,0,0,0,474.1,828.12Z"/><path class="cls-6" d="M501.23,858.49l40.92-100.3h19.93l40.76,100.3H576.77L568.52,836H535.4l-8.09,22.46ZM552,782.77,539.3,820.06h25Z"/><path class="cls-6" d="M609,834.9a27.21,27.21,0,0,0,6.37,2.82,34.37,34.37,0,0,0,11.31,1.7,18.79,18.79,0,0,0,8.85-1.77,11.92,11.92,0,0,0,5.09-5.44,27.1,27.1,0,0,0,2.32-9.39q.52-5.73.53-13.63v-51H668v51A155.63,155.63,0,0,1,666.76,830a38.91,38.91,0,0,1-5.54,16,27.86,27.86,0,0,1-12.52,10.31q-8.24,3.68-22,3.67-13.49,0-23.08-6.21Z"/><path class="cls-6" d="M731.88,859.34A47.89,47.89,0,0,1,711.2,855a51.54,51.54,0,0,1-26.3-27.83,50.53,50.53,0,0,1-3.67-18.93,49.17,49.17,0,0,1,3.82-19.08A51,51,0,0,1,695.69,773a51.71,51.71,0,0,1,16.18-11.16,49.77,49.77,0,0,1,20.46-4.17A48,48,0,0,1,753,762a51.19,51.19,0,0,1,26.22,28,50.75,50.75,0,0,1,3.6,18.65A49.12,49.12,0,0,1,779,827.69a51.13,51.13,0,0,1-26.68,27.41A49.11,49.11,0,0,1,731.88,859.34Zm-25.63-50.86A36.9,36.9,0,0,0,708,819.71a31.61,31.61,0,0,0,4.94,9.68,24.06,24.06,0,0,0,8.1,6.78,23.81,23.81,0,0,0,11.16,2.54A22.63,22.63,0,0,0,743.42,836a25.27,25.27,0,0,0,8-7,30.06,30.06,0,0,0,4.8-9.74,39.73,39.73,0,0,0,1.57-11.09A37,37,0,0,0,756.09,797a30.08,30.08,0,0,0-5-9.6,24.53,24.53,0,0,0-8.1-6.64A23.51,23.51,0,0,0,732,778.25a23.18,23.18,0,0,0-11.24,2.61,25,25,0,0,0-8,6.85,30.4,30.4,0,0,0-4.87,9.68A38,38,0,0,0,706.25,808.48Z"/><line class="cls-6" x1="163.31" y1="1185.11" x2="916.69" y2="1185.11"/><line class="cls-6" x1="163.31" y1="1080.77" x2="916.69" y2="1080.77"/><circle class="cls-5" cx="544.5" cy="1017.5" r="41.5"/><text class="cls-7" transform="translate(513.89 1040.64)">12</text></svg>